<svg version="1.1" xmlns="http://www.w3.org/2000/svg" x="0px" y="0px" width="66px" height="50px" viewBox="0 0 66 50" enable-background="new 0 0 66 50" xml:space="preserve">
<g>
	<path fill="#020202" d="M47.193,23.395l1.528-4.18c0.169-0.46-0.063-0.969-0.517-1.142L44.073,16.5l-0.954-4.352
		c-0.105-0.478-0.573-0.783-1.047-0.679l-4.316,0.929l-3.134-3.14c-0.345-0.344-0.901-0.344-1.245,0l-3.133,3.14l-4.316-0.929
		c-0.474-0.105-0.943,0.201-1.047,0.679L23.926,16.5l-4.131,1.573c-0.454,0.173-0.685,0.683-0.517,1.142l1.528,4.18l-2.632,3.581
		c-0.289,0.393-0.21,0.949,0.177,1.243l3.525,2.686l-0.297,4.447c-0.032,0.488,0.331,0.913,0.816,0.949l4.4,0.333l2.13,3.904
		c0.234,0.43,0.765,0.585,1.195,0.355l3.88-2.122l3.88,2.122C38.015,40.965,38.158,41,38.301,41c0.312,0,0.614-0.167,0.775-0.462
		l2.13-3.904l4.399-0.333c0.484-0.036,0.848-0.46,0.816-0.949l-0.297-4.447l3.525-2.686c0.387-0.294,0.465-0.85,0.177-1.243
		L47.193,23.395z M44.678,29.771c-0.237,0.181-0.37,0.472-0.349,0.771l0.271,4.046l-4.002,0.304
		c-0.298,0.021-0.564,0.195-0.708,0.459l-1.938,3.55l-3.53-1.93c-0.264-0.144-0.579-0.144-0.842,0l-3.53,1.93l-1.939-3.55
		c-0.144-0.264-0.41-0.437-0.708-0.459l-4.002-0.304l0.271-4.046c0.02-0.3-0.111-0.59-0.349-0.771l-3.207-2.444l2.396-3.257
		c0.178-0.242,0.223-0.557,0.119-0.84l-1.389-3.802l3.757-1.431c0.279-0.106,0.486-0.347,0.55-0.641l0.868-3.96l3.927,0.846
		c0.292,0.067,0.595-0.026,0.807-0.238l2.85-2.856l2.85,2.856c0.212,0.212,0.517,0.308,0.807,0.238l3.927-0.846l0.867,3.96
		c0.065,0.293,0.272,0.534,0.55,0.641l3.757,1.431l-1.389,3.802c-0.104,0.282-0.059,0.598,0.119,0.84l2.396,3.257L44.678,29.771z"/>
	<path fill="#020202" d="M33.97,16.005c-5.01,0-9.087,4.114-9.087,9.171s4.077,9.171,9.087,9.171s9.087-4.114,9.087-9.171
		S38.981,16.005,33.97,16.005z M33.97,32.31c-3.897,0-7.068-3.201-7.068-7.133s3.17-7.133,7.068-7.133s7.068,3.201,7.068,7.133
		S37.868,32.31,33.97,32.31z"/>
	<ellipse fill="#020202" cx="30.941" cy="28.234" rx="1.01" ry="1.019"/>
	<ellipse fill="#020202" cx="33.97" cy="28.234" rx="1.01" ry="1.019"/>
	<ellipse fill="#020202" cx="36.999" cy="28.234" rx="1.01" ry="1.019"/>
	<rect x="29.932" y="21.1" fill="#020202" width="2.019" height="5.095"/>
	<rect x="32.961" y="21.1" fill="#020202" width="2.019" height="5.095"/>
	<rect x="35.99" y="21.1" fill="#020202" width="2.019" height="5.095"/>
</g>
</svg>
