<?xml version="1.0" encoding="utf-8"?>
<!-- Generator: Adobe Illustrator 19.0.0, SVG Export Plug-In . SVG Version: 6.00 Build 0)  -->
<svg version="1.1" id="Layer_1" xmlns="http://www.w3.org/2000/svg" xmlns:xlink="http://www.w3.org/1999/xlink" x="0px" y="0px"
	 width="44px" height="44px" viewBox="-283 375 44 44" style="enable-background:new -283 375 44 44;" xml:space="preserve">
<style type="text/css">
	.st0{fill:#6FAA70;}
	.st1{fill:#FFFFFF;stroke:#6FAA70;stroke-width:0.25;stroke-miterlimit:10;}
	.st2{fill:none;stroke:#000000;stroke-width:0.75;stroke-miterlimit:10;}
	.st3{fill:#FFFFFF;}
</style>
<g id="Слой_1__x28_копия_x29__copy_2">
	<g id="Layer_3_3_">
		<circle class="st0" cx="-261" cy="397" r="21"/>
	</g>
	<circle class="st0" cx="-261" cy="397" r="21.5"/>
	<path class="st1" d="M-265.8,384.8l-6.5,5.8v4.4h2.1c0.2,1.1,1.1,2,2.3,2s2.2-0.9,2.3-2h8.3c0.2,1.1,1.1,2,2.3,2s2.2-0.9,2.3-2h2.7
		v-10.2L-265.8,384.8L-265.8,384.8z M-267.8,395.6c-0.6,0-1-0.5-1-1c0-0.6,0.5-1,1-1c0.6,0,1,0.5,1,1
		C-266.8,395.2-267.3,395.6-267.8,395.6z M-262,393.6h-3.6c-0.5-0.8-1.3-1.4-2.2-1.4s-1.7,0.6-2.1,1.4h-0.9v-2.4l5.7-5h3.1V393.6z
		 M-255,395.6c-0.6,0-1-0.5-1-1c0-0.6,0.5-1,1-1c0.6,0,1,0.5,1,1C-254,395.2-254.4,395.6-255,395.6z M-251.3,393.6h-1.6
		c-0.4-0.8-1.2-1.4-2.1-1.4c-0.9,0-1.7,0.6-2.1,1.4h-3.6v-7.4h9.4L-251.3,393.6L-251.3,393.6z"/>
	<path class="st2" d="M-254,383.9"/>
	<path class="st2" d="M-254,387"/>
	<g>
		<path class="st3" d="M-266.2,401.4c2.1,0,3,1.9,3,4.7c0,2.7-0.9,4.7-2.9,4.7c-2.1,0-3-1.9-3-4.7S-268.2,401.4-266.2,401.4z
			 M-266.2,409.7c1.3,0,1.8-1.3,1.8-3.7c0-2.4-0.5-3.7-1.8-3.7s-1.8,1.4-1.8,3.7C-268,408.4-267.4,409.7-266.2,409.7z"/>
		<path class="st3" d="M-259.3,405.7h1.4v-4.3c0.5,0,1.8,0,2.4,0c2.6,0,3.4,1.2,3.4,2.6c0,1.5-1.1,2.5-3.3,2.5h-1.4v1.4h2.2v0.8
			h-2.2v1.8h-1.1v-1.8h-1.4v-0.8h1.4v-1.4h-1.4L-259.3,405.7L-259.3,405.7z M-256.9,402.5v3.2h1.3c1.3,0,2.1-0.5,2.1-1.6
			s-0.7-1.6-2.1-1.6C-255.8,402.5-256.4,402.5-256.9,402.5z"/>
	</g>
</g>
</svg>
