<?xml version="1.0" encoding="utf-8"?>
<!-- Generator: Adobe Illustrator 16.0.0, SVG Export Plug-In . SVG Version: 6.00 Build 0)  -->
<!DOCTYPE svg PUBLIC "-//W3C//DTD SVG 1.1//EN" "http://www.w3.org/Graphics/SVG/1.1/DTD/svg11.dtd">
<svg version="1.1" id="Слой_1" xmlns="http://www.w3.org/2000/svg" xmlns:xlink="http://www.w3.org/1999/xlink" x="0px" y="0px"
	 width="44px" height="44px" viewBox="0 0 44 44" enable-background="new 0 0 44 44" xml:space="preserve">
<g id="Layer_3">
	<circle opacity="0.9" fill="#FFFFFF" enable-background="new    " cx="22" cy="22" r="21"/>
</g>
<g id="Layer_2">
	<circle fill="none" stroke="#000000" stroke-miterlimit="10" cx="22" cy="22" r="21.5"/>
	<path stroke="#FFFFFF" stroke-width="0.25" stroke-miterlimit="10" d="M34.4,12c0-3-2.4-5.4-5.4-5.4c-2.8,0-5,2.1-5.4,4.7h-7.1
		L10,17.1v4.4h2.1c0.2,1.1,1.1,2,2.3,2c1.2,0,2.2-0.9,2.3-2H25c0.2,1.1,1.1,2,2.3,2s2.2-0.9,2.3-2h2.7v-5.3
		C33.6,15.2,34.4,13.7,34.4,12z M29,7.9c2.2,0,4.1,1.8,4.1,4.1c0,2.2-1.8,4.1-4.1,4.1s-4.1-1.8-4.1-4.1S26.8,7.9,29,7.9z M14.5,22.1
		c-0.6,0-1-0.5-1-1c0-0.6,0.5-1,1-1c0.6,0,1,0.5,1,1C15.5,21.7,15,22.1,14.5,22.1z M14.5,18.7c-0.9,0-1.7,0.6-2.1,1.4h-0.9v-2.4
		l5.7-5h3.1v7.4h-3.6C16.2,19.3,15.4,18.7,14.5,18.7z M27.3,22.1c-0.6,0-1-0.5-1-1c0-0.6,0.5-1,1-1c0.601,0,1,0.5,1,1
		C28.3,21.7,27.9,22.1,27.3,22.1z M31,20.1h-1.6c-0.4-0.8-1.2-1.4-2.101-1.4c-0.899,0-1.7,0.6-2.1,1.4h-3.6v-7.4h2.1
		c0.3,2.7,2.6,4.7,5.399,4.7c0.7,0,1.4-0.1,2-0.4L31,20.1L31,20.1L31,20.1z"/>
	<line fill="none" stroke="#000000" stroke-width="0.75" stroke-miterlimit="10" x1="29" y1="12" x2="29" y2="8.9"/>
	<line fill="none" stroke="#000000" stroke-width="0.75" stroke-miterlimit="10" x1="28.6" y1="12" x2="31.9" y2="12"/>
</g>
<g>
	<path d="M10.616,27.122h0.366v7.17h-0.529v-6.399l-1.168,0.945l-0.285-0.427L10.616,27.122z"/>
	<path d="M14.807,33.795h0.569c0.285-0.365,0.65-1.341,0.742-2.783l0.071-1.29h2.916v4.073h0.762v1.655h-0.498v-1.158h-4.063v1.158
		h-0.498V33.795z M15.935,33.795h2.641V30.22h-1.89l-0.061,0.994C16.523,32.535,16.168,33.5,15.935,33.795z"/>
	<path d="M24.626,33.734c-0.417,0.436-1.076,0.649-1.686,0.649c-1.443,0-2.428-0.935-2.428-2.377c0-1.33,0.813-2.377,2.315-2.377
		c1.18,0,2.072,0.813,2.072,2.062c0,0.172-0.01,0.305-0.03,0.427h-3.769c0.041,1.097,0.772,1.768,1.869,1.768
		c0.619,0,1.168-0.234,1.483-0.56L24.626,33.734z M21.07,31.682h3.291c-0.02-0.964-0.629-1.554-1.584-1.554
		C21.761,30.128,21.162,30.788,21.07,31.682z"/>
	<path d="M29.649,32.22h-2.966v2.072h-0.527v-4.57h0.527v2.001h2.966v-2.001h0.528v4.57h-0.528V32.22z"/>
	<path d="M31.779,29.722h0.527v1.533h0.884c1.401,0,1.809,0.69,1.809,1.504c0,0.802-0.457,1.533-1.879,1.533h-1.341V29.722z
		 M32.307,31.753v2.042h0.783c0.995,0,1.35-0.376,1.35-1.026c0-0.64-0.375-1.016-1.341-1.016H32.307z"/>
</g>
</svg>
