<?xml version="1.0" encoding="utf-8"?>
<!-- Generator: Adobe Illustrator 16.0.0, SVG Export Plug-In . SVG Version: 6.00 Build 0)  -->
<!DOCTYPE svg PUBLIC "-//W3C//DTD SVG 1.1//EN" "http://www.w3.org/Graphics/SVG/1.1/DTD/svg11.dtd">
<svg version="1.1" id="Слой_1" xmlns="http://www.w3.org/2000/svg" xmlns:xlink="http://www.w3.org/1999/xlink" x="0px" y="0px"
	 width="44px" height="44px" viewBox="0 0 44 44" enable-background="new 0 0 44 44" xml:space="preserve">
<g id="Слой_1_3_">
	<g id="Слой_3_1_">
		<circle fill="#FFE164" cx="22" cy="22" r="22"/>
	</g>
</g>
<g>
	<path d="M12.154,12.912h0.505v6.338h-0.721v-5.303l-0.918,0.72l-0.378-0.585L12.154,12.912z"/>
	<path d="M16.502,12.875c1.422,0,2.043,1.333,2.043,3.223c0,1.899-0.603,3.223-2.025,3.223c-1.422,0-2.062-1.323-2.062-3.223
		C14.458,14.208,15.079,12.875,16.502,12.875z M16.52,18.646c0.918,0,1.261-0.918,1.261-2.548s-0.36-2.548-1.278-2.548
		c-0.919,0-1.278,0.937-1.278,2.548C15.224,17.719,15.628,18.646,16.52,18.646z"/>
	<path d="M21.803,12.875c1.422,0,2.043,1.333,2.043,3.223c0,1.899-0.603,3.223-2.025,3.223c-1.422,0-2.062-1.323-2.062-3.223
		C19.759,14.208,20.38,12.875,21.803,12.875z M21.82,18.646c0.918,0,1.261-0.918,1.261-2.548s-0.36-2.548-1.278-2.548
		c-0.919,0-1.278,0.937-1.278,2.548C20.524,17.719,20.929,18.646,21.82,18.646z"/>
	<path d="M27.833,12.894c0.945,0,1.647,0.612,1.647,1.521s-0.702,1.53-1.647,1.53s-1.647-0.621-1.647-1.53
		S26.888,12.894,27.833,12.894z M27.833,15.36c0.531,0,0.972-0.369,0.972-0.945c0-0.567-0.449-0.936-0.972-0.936
		c-0.531,0-0.973,0.369-0.973,0.936C26.86,14.991,27.319,15.36,27.833,15.36z M31.839,12.857l0.414,0.306l-4.618,6.176l-0.423-0.297
		L31.839,12.857z M31.623,16.251c0.945,0,1.647,0.612,1.647,1.521s-0.702,1.531-1.647,1.531s-1.647-0.622-1.647-1.531
		S30.678,16.251,31.623,16.251z M31.623,18.718c0.531,0,0.973-0.369,0.973-0.945c0-0.567-0.45-0.936-0.973-0.936
		c-0.531,0-0.973,0.369-0.973,0.936C30.65,18.349,31.109,18.718,31.623,18.718z"/>
	<path d="M14.617,27.968l2.938,4.281h-1.727l-2.171-3.154l-2.159,3.154H9.772l2.938-4.281l-2.807-4.114h1.727l2.063,3.034
		l2.026-3.034h1.728L14.617,27.968z"/>
	<path d="M18.844,32.249v-8.396h1.476v5.973l4.401-5.973h1.295v8.396h-1.475v-5.961l-4.401,5.961H18.844z"/>
	<path d="M27.305,23.854h6.92v1.379h-2.723v7.017h-1.475v-7.017h-2.723V23.854z"/>
</g>
</svg>
