<?xml version="1.0" encoding="UTF-8" standalone="no"?>
<!-- Generator: Adobe Illustrator 17.0.0, SVG Export Plug-In . SVG Version: 6.00 Build 0)  -->

<svg
   xmlns:dc="http://purl.org/dc/elements/1.1/"
   xmlns:cc="http://creativecommons.org/ns#"
   xmlns:rdf="http://www.w3.org/1999/02/22-rdf-syntax-ns#"
   xmlns:svg="http://www.w3.org/2000/svg"
   xmlns="http://www.w3.org/2000/svg"
   xmlns:sodipodi="http://sodipodi.sourceforge.net/DTD/sodipodi-0.dtd"
   xmlns:inkscape="http://www.inkscape.org/namespaces/inkscape"
   version="1.1"
   id="Layer_1"
   x="0px"
   y="0px"
   width="38"
   height="17"
   viewBox="0 0 38 17"
   enable-background="new 0 0 44 38"
   xml:space="preserve"
   inkscape:version="0.91 r13725"
   sodipodi:docname="spalnya.svg"><metadata
     id="metadata9"><rdf:RDF><cc:Work
         rdf:about=""><dc:format>image/svg+xml</dc:format><dc:type
           rdf:resource="http://purl.org/dc/dcmitype/StillImage" /><dc:title></dc:title></cc:Work></rdf:RDF></metadata><defs
     id="defs7" /><sodipodi:namedview
     pagecolor="#ffffff"
     bordercolor="#666666"
     borderopacity="1"
     objecttolerance="10"
     gridtolerance="10"
     guidetolerance="10"
     inkscape:pageopacity="0"
     inkscape:pageshadow="2"
     inkscape:window-width="767"
     inkscape:window-height="480"
     id="namedview5"
     showgrid="false"
     fit-margin-top="0"
     fit-margin-left="0"
     fit-margin-right="0"
     fit-margin-bottom="0"
     inkscape:zoom="6.2105263"
     inkscape:cx="-0.96610169"
     inkscape:cy="16"
     inkscape:window-x="0"
     inkscape:window-y="0"
     inkscape:window-maximized="0"
     inkscape:current-layer="Layer_1" /><path
     d="M 34,0 4,0 C 1.065,0 0,2.392 0,4 l 0,11 2,0 0,2 3,0 0,-2 28,0 0,2 3,0 0,-2 2,0 0,-11 C 38,1.065 35.608,0 34,0 Z m 2,13 -34,0 0,-3 34,0 0,3 z M 7,8 C 7,6.16 7.857,6.011 8,6 l 5,0 c 0.94,0 0.999,1.962 1,2 L 7,8 Z m 17,0 c 0,-1.84 0.857,-1.989 1,-2 l 5,0 c 0.94,0 0.999,1.962 1,2 L 24,8 Z M 36,8 33,8 C 33,6.617 32.373,4 30,4 L 25,4 C 23.962,4 22,4.836 22,8 L 16,8 C 16,6.617 15.373,4 13,4 L 8,4 C 6.962,4 5,4.836 5,8 L 2,8 2,4 C 2,3.666 2.096,2 4,2 l 30,0 c 0.334,0 2,0.096 2,2 l 0,4 z"
     id="path3"
     inkscape:connector-curvature="0" /></svg>