<?xml version="1.0" encoding="utf-8"?>
<!-- Generator: Adobe Illustrator 16.0.0, SVG Export Plug-In . SVG Version: 6.00 Build 0)  -->
<!DOCTYPE svg PUBLIC "-//W3C//DTD SVG 1.1//EN" "http://www.w3.org/Graphics/SVG/1.1/DTD/svg11.dtd">
<svg version="1.1" id="Слой_1" xmlns="http://www.w3.org/2000/svg" xmlns:xlink="http://www.w3.org/1999/xlink" x="0px" y="0px"
	 width="33.307px" height="11.587px" viewBox="0 0 33.307 11.587" enable-background="new 0 0 33.307 11.587" xml:space="preserve">
<g>
	<path fill="#040506" d="M6.714,4.917c0,0.909,0.009,1.739,0.04,2.571C6.428,6.892,6.068,6.283,5.671,5.646L2.13,0.006H0v11.582
		h2.107V6.58c0-1.041-0.01-1.908-0.032-2.713C2.418,4.49,2.82,5.169,3.29,5.929l3.507,5.658h2.024V0.005H6.712L6.714,4.917
		L6.714,4.917z"/>
	<polygon fill="#040506" points="13.588,6.537 17.734,6.537 17.734,4.577 13.588,4.577 13.588,1.98 17.973,1.98 17.973,0.008 
		11.4,0.008 11.4,11.587 18.211,11.587 18.211,9.613 13.588,9.613 	"/>
	<path fill="#040506" d="M29.568,5.748l-0.055,0.227c-0.133,0.543-0.264,1.074-0.385,1.588C29,6.972,28.861,6.373,28.727,5.785
		l-1.371-5.78h-2.072l-1.504,5.737c-0.186,0.707-0.352,1.33-0.486,1.904c-0.129-0.602-0.271-1.23-0.424-1.875l-1.342-5.767h-2.301
		l2.912,11.583h2.066l1.6-5.902c0.158-0.557,0.297-1.068,0.412-1.562c0.102,0.496,0.227,1.001,0.357,1.546l1.418,5.918h2.066
		l3.248-11.583h-2.252L29.568,5.748z"/>
</g>
</svg>
